<svg xmlns="http://www.w3.org/2000/svg" width="200" height="200" viewBox="0 0 24 24" fill="none" stroke="#06B6D4" stroke-width="2" stroke-linecap="round" stroke-linejoin="round">
  <path d="M9.5 2A2.5 2.5 0 0 1 12 4.5v15a2.5 2.5 0 0 1-4.96.44 2.5 2.5 0 0 1-2.96-3.23 3 3 0 0 1-.34-5.58l.34-.34a3 3 0 0 1 4.56-4.56l.34-.34A3 3 0 0 1 9.5 2Z"/>
  <path d="M14.5 2A2.5 2.5 0 0 0 12 4.5v15a2.5 2.5 0 0 0 4.96.44 2.5 2.5 0 0 0 2.96-3.23 3 3 0 0 0 .34-5.58l-.34-.34a3 3 0 0 0-4.56-4.56l-.34-.34A3 3 0 0 0 14.5 2Z"/>
  <!-- Neural connections -->
  <circle cx="12" cy="12" r="1" fill="#4F46E5"/>
  <circle cx="8" cy="8" r="0.5" fill="#06B6D4" opacity="0.6"/>
  <circle cx="16" cy="8" r="0.5" fill="#06B6D4" opacity="0.6"/>
  <circle cx="8" cy="16" r="0.5" fill="#06B6D4" opacity="0.6"/>
  <circle cx="16" cy="16" r="0.5" fill="#06B6D4" opacity="0.6"/>
  <!-- Connection lines -->
  <line x1="8" y1="8" x2="12" y2="12" stroke="#4F46E5" stroke-width="0.5" opacity="0.4"/>
  <line x1="16" y1="8" x2="12" y2="12" stroke="#4F46E5" stroke-width="0.5" opacity="0.4"/>
  <line x1="8" y1="16" x2="12" y2="12" stroke="#4F46E5" stroke-width="0.5" opacity="0.4"/>
  <line x1="16" y1="16" x2="12" y2="12" stroke="#4F46E5" stroke-width="0.5" opacity="0.4"/>
</svg>
