<svg xmlns="http://www.w3.org/2000/svg" width="200" height="200" viewBox="0 0 24 24" fill="none" stroke="#06B6D4" stroke-width="2" stroke-linecap="round" stroke-linejoin="round">
  <path d="M6 9H4.5a2.5 2.5 0 0 1 0-5H6"/>
  <path d="M18 9h1.5a2.5 2.5 0 0 0 0-5H18"/>
  <path d="M4 22h16"/>
  <path d="M10 14.66V17c0 1.1.9 2 2 2s2-.9 2-2v-2.34"/>
  <path d="M12 2v6"/>
  <!-- Success highlights -->
  <circle cx="12" cy="12" r="1" fill="#4F46E5"/>
  <path d="M6 9H4.5a2.5 2.5 0 0 1 0-5H6" fill="none" stroke="#4F46E5" stroke-width="1" opacity="0.3"/>
  <path d="M18 9h1.5a2.5 2.5 0 0 0 0-5H18" fill="none" stroke="#4F46E5" stroke-width="1" opacity="0.3"/>
  <!-- Celebration elements -->
  <circle cx="8" cy="6" r="1" fill="#06B6D4" opacity="0.4"/>
  <circle cx="16" cy="6" r="1" fill="#06B6D4" opacity="0.4"/>
  <circle cx="12" cy="4" r="0.5" fill="#06B6D4" opacity="0.4"/>
</svg>
