<svg xmlns="http://www.w3.org/2000/svg" width="200" height="200" viewBox="0 0 24 24" fill="none" stroke="#4F46E5" stroke-width="2" stroke-linecap="round" stroke-linejoin="round">
  <path d="M14.7 6.3a1 1 0 0 0 0 1.4l1.6 1.6a1 1 0 0 0 1.4 0l3.77-3.77a6 6 0 0 1-7.94 7.94l-6.91 6.91a2.12 2.12 0 0 1-3-3l6.91-6.91a6 6 0 0 1 7.94-7.94l-3.76 3.76z"/>
  <!-- Tool highlights -->
  <circle cx="12" cy="12" r="2" fill="#06B6D4" opacity="0.6"/>
  <path d="M14.7 6.3a1 1 0 0 0 0 1.4l1.6 1.6a1 1 0 0 0 1.4 0l3.77-3.77a6 6 0 0 1-7.94 7.94l-6.91 6.91a2.12 2.12 0 0 1-3-3l6.91-6.91a6 6 0 0 1 7.94-7.94l-3.76 3.76z" fill="none" stroke="#06B6D4" stroke-width="1" opacity="0.3"/>
  <!-- Code symbols -->
  <text x="6" y="20" font-family="monospace" font-size="6" fill="#4F46E5" opacity="0.6">&lt;/&gt;</text>
  <text x="18" y="20" font-family="monospace" font-size="6" fill="#4F46E5" opacity="0.6">{}</text>
</svg>
